<?xml version="1.0" encoding="UTF-8" standalone="no"?><!DOCTYPE svg PUBLIC "-//W3C//DTD SVG 1.1//EN" "http://www.w3.org/Graphics/SVG/1.1/DTD/svg11.dtd"><svg width="100%" height="100%" viewBox="0 0 237 237" version="1.1" xmlns="http://www.w3.org/2000/svg" xmlns:xlink="http://www.w3.org/1999/xlink" xml:space="preserve" xmlns:serif="http://www.serif.com/" style="fill-rule:evenodd;clip-rule:evenodd;stroke-linejoin:round;stroke-miterlimit:2;"><path d="M101.571,0.421C84.368,3.614 70.712,8.302 59.634,14.817C27.889,33.484 7.577,62.734 1.29,98.833C-1.028,112.119 -0.132,134.187 3.249,147.135C11.639,179.286 30.238,203.604 60.243,221.64L63.811,223.786L69.009,209.729C73.217,198.307 77.394,186.88 81.535,175.442C95.41,137.13 99.764,125.604 101.181,123.39C103.191,120.255 107.394,120.526 111.863,124.078C117.009,128.166 121.472,129.489 125.566,128.135C129.009,127 138.155,118.218 147.316,107.255C152.493,101.052 153.009,100.708 157.999,100.109C164.65,99.312 179.249,99.447 182.483,100.338C184.181,100.807 185.04,101.822 185.249,103.593C185.483,105.588 183.853,108.192 178.019,115.145C172.103,122.203 120.879,178.265 118.426,180.375C118.108,180.645 115.207,183.755 111.983,187.281C108.754,190.807 102.092,197.927 97.181,203.098C91.738,208.833 86.306,214.578 80.884,220.333L73.519,228.161L82.176,230.916C108.92,239.437 136.764,238.364 163.321,227.781C191.624,216.505 216.045,192.234 227.889,163.598C235.821,144.432 238.749,118.994 235.342,98.916C230.707,71.619 216.696,46.281 196.775,29.161C187.853,21.5 171.379,10.656 168.66,10.656C167.082,10.656 154.952,41.651 135.045,96.505C126.853,119.088 124.884,120.656 114.019,113.276C109.551,110.244 107.264,109.328 104.124,109.328C99.311,109.328 97.332,110.541 88.67,118.786C81.097,126 79.634,126.437 64.686,125.947C55.577,125.651 53.988,125.343 52.129,123.479C50.571,121.921 50.17,120.671 50.634,118.828C51.025,117.27 71.999,95.619 105.525,62.161C135.368,32.385 159.785,7.786 159.785,7.5C159.785,6.687 152.103,4.015 144.493,2.177C137.775,0.552 107.525,-0.683 101.571,0.421" style="fill:#1c1c1c;"/></svg>